<svg xmlns="http://www.w3.org/2000/svg" viewBox="0 0 512 512">
  <rect width="512" height="512" fill="#f0f8ff"/>
  <circle cx="256" cy="256" r="180" fill="#ffffff" stroke="#000000" stroke-width="2"/>
  <path d="M256 76c-99.4 0-180 80.6-180 180s80.6 180 180 180 180-80.6 180-180S355.4 76 256 76zm0 320c-77.2 0-140-62.8-140-140s62.8-140 140-140 140 62.8 140 140-62.8 140-140 140z" fill="none" stroke="#ff00ff" stroke-width="4"/>
  <path d="M256 116c-77.2 0-140 62.8-140 140s62.8 140 140 140 140-62.8 140-140-62.8-140-140-140zm0 240c-55.2 0-100-44.8-100-100s44.8-100 100-100 100 44.8 100 100-44.8 100-100 100z" fill="none" stroke="#00ffff" stroke-width="4"/>
  <path d="M256 156c-55.2 0-100 44.8-100 100s44.8 100 100 100 100-44.8 100-100-44.8-100-100-100zm0 160c-33.1 0-60-26.9-60-60s26.9-60 60-60 60 26.9 60 60-26.9 60-60 60z" fill="none" stroke="#ffff00" stroke-width="4"/>
  <path d="M256 196c-33.1 0-60 26.9-60 60s26.9 60 60 60 60-26.9 60-60-26.9-60-60-60zm0 80c-11 0-20-9-20-20s9-20 20-20 20 9 20 20-9 20-20 20z" fill="none" stroke="#ff0000" stroke-width="4"/>
</svg>